<svg width="1920" height="1200" viewBox="0 0 1920 1200" fill="none" xmlns="http://www.w3.org/2000/svg">
  <rect width="1920" height="1200" fill="#E7FAF9"/>
  <circle cx="1600" cy="120" r="360" fill="#05ABA5" fill-opacity="0.16"/>
  <circle cx="300" cy="980" r="420" fill="#05ABA5" fill-opacity="0.12"/>
  <path d="M0 930C290 850 510 1040 760 980C1020 915 1240 760 1520 780C1690 792 1810 835 1920 880V1200H0V930Z" fill="#05ABA5" fill-opacity="0.14"/>

  <g opacity="0.35">
    <rect x="180" y="290" width="430" height="470" rx="28" fill="white"/>
    <rect x="250" y="390" width="120" height="120" rx="16" fill="#D7F4F3"/>
    <rect x="400" y="390" width="120" height="120" rx="16" fill="#D7F4F3"/>
    <rect x="250" y="550" width="120" height="120" rx="16" fill="#D7F4F3"/>
    <rect x="400" y="550" width="120" height="120" rx="16" fill="#D7F4F3"/>
    <rect x="320" y="190" width="150" height="150" rx="24" fill="#05ABA5"/>
    <rect x="375" y="230" width="40" height="80" rx="6" fill="white"/>
    <rect x="355" y="250" width="80" height="40" rx="6" fill="white"/>
  </g>

  <g opacity="0.3">
    <rect x="1120" y="280" width="560" height="430" rx="30" fill="white"/>
    <rect x="1180" y="360" width="140" height="140" rx="20" fill="#E2F8F7"/>
    <rect x="1350" y="360" width="140" height="140" rx="20" fill="#E2F8F7"/>
    <rect x="1520" y="360" width="100" height="140" rx="20" fill="#E2F8F7"/>
    <rect x="1180" y="530" width="140" height="140" rx="20" fill="#E2F8F7"/>
    <rect x="1350" y="530" width="140" height="140" rx="20" fill="#E2F8F7"/>
    <rect x="1520" y="530" width="100" height="140" rx="20" fill="#E2F8F7"/>
  </g>

  <path d="M690 700C740 700 740 620 790 620C840 620 840 750 890 750C940 750 940 570 990 570C1040 570 1040 700 1090 700" stroke="#05ABA5" stroke-opacity="0.5" stroke-width="18" stroke-linecap="round" stroke-linejoin="round"/>
</svg>
